HIERARCHY
ROOT Hips
{
	OFFSET	0.000000	0.000000	0.000000
	CHANNELS 6 Xposition Yposition Zposition Zrotation Xrotation Yrotation
	JOINT LeftUpLeg
	{
		OFFSET	12.811937	-7.635976	0.557276
		CHANNELS 3 Zrotation Xrotation Yrotation
		JOINT LeftLeg
		{
			OFFSET	-0.429270	-42.206159	-1.204951
			CHANNELS 3 Zrotation Xrotation Yrotation
			JOINT LeftFoot
			{
				OFFSET	-2.112259	-42.464481	-3.973220
				CHANNELS 3 Zrotation Xrotation Yrotation
				JOINT LeftFootHeel
				{
					OFFSET	0.387196	-5.329707	-3.419729
					CHANNELS 3 Zrotation Xrotation Yrotation
					End Site
					{
						OFFSET	0.327567	-0.000003	16.505428
					}
				}
			}
		}
	}
	JOINT RightUpLeg
	{
		OFFSET	-12.811937	-7.635976	0.557276
		CHANNELS 3 Zrotation Xrotation Yrotation
		JOINT RightLeg
		{
			OFFSET	0.429270	-42.206159	-1.204951
			CHANNELS 3 Zrotation Xrotation Yrotation
			JOINT RightFoot
			{
				OFFSET	2.112259	-42.464481	-3.973220
				CHANNELS 3 Zrotation Xrotation Yrotation
				JOINT RightFootHeel
				{
					OFFSET	-0.387198	-5.329707	-3.419729
					CHANNELS 3 Zrotation Xrotation Yrotation
					End Site
					{
						OFFSET	-0.327566	-0.000003	16.505428
					}
				}
			}
		}
	}
	JOINT Spine
	{
		OFFSET	0.000000	13.731315	-1.007646
		CHANNELS 3 Zrotation Xrotation Yrotation
		JOINT Spine1
		{
			OFFSET	0.000000	12.091746	-0.604589
			CHANNELS 3 Zrotation Xrotation Yrotation
			JOINT LeftShoulder
			{
				OFFSET	5.746115	20.990027	-0.833816
				CHANNELS 3 Zrotation Xrotation Yrotation
				JOINT LeftArm
				{
					OFFSET	10.881538	-1.359258	0.219250
					CHANNELS 3 Zrotation Xrotation Yrotation
					JOINT LeftForeArm
					{
						OFFSET	4.390314	-31.537147	0.202818
						CHANNELS 3 Zrotation Xrotation Yrotation
						JOINT LeftHand
						{
							OFFSET	3.168650	-24.865023	5.373370
							CHANNELS 3 Zrotation Xrotation Yrotation
							End Site
							{
								OFFSET	1.457528	-10.806075	2.170267
							}
						}
					}
				}
			}
			JOINT RightShoulder
			{
				OFFSET	-5.746115	20.990027	-0.833816
				CHANNELS 3 Zrotation Xrotation Yrotation
				JOINT RightArm
				{
					OFFSET	-10.881538	-1.359258	0.219250
					CHANNELS 3 Zrotation Xrotation Yrotation
					JOINT RightForeArm
					{
						OFFSET	-4.390314	-31.537147	0.202818
						CHANNELS 3 Zrotation Xrotation Yrotation
						JOINT RightHand
						{
							OFFSET	-3.168650	-24.865023	5.373370
							CHANNELS 3 Zrotation Xrotation Yrotation
							End Site
							{
								OFFSET	-1.457528	-10.806075	2.170267
							}
						}
					}
				}
			}
			JOINT Neck
			{
				OFFSET	0.000000	27.075639	0.680489
				CHANNELS 3 Zrotation Xrotation Yrotation
				JOINT Head
				{
					OFFSET	0.000000	12.391287	1.239129
					CHANNELS 3 Zrotation Xrotation Yrotation
					End Site
					{
						OFFSET	0.000000	13.818691	-0.105853
					}
				}
			}
		}
	}
}
MOTION
Frames:     8
Frame Time: 0.016667
-0.569312	100.505395	5.282770	-1.278330	2.618110	-3.469053	0.572119	4.492533	3.097786	1.477824	-4.113271	5.704828	-1.624312	0.367276	-5.047571	0.	0.	0.	1.467951	0.424573	-4.375434	0.843844	-0.534129	4.025422	0.197326	1.807241	-4.330457	0.	0.	0.	-1.827458	-2.674248	1.124204	3.024755	3.922403	-9.329536	-0.074335	2.993042	3.179658	3.008953	-5.284301	-15.060558	-2.410410	-2.952660	-2.560986	4.398897	-1.603734	-17.349365	-1.526294	5.169788	2.670070	-1.587782	-9.005431	10.835154	1.541530	-2.134834	7.820381	-1.728068	-1.713511	9.730306	-5.880908	6.755020	-18.269766	0.252612	2.175146	28.780516	
-0.592744	100.548599	5.467083	-1.272497	2.580125	-3.590657	0.554419	4.531277	3.219126	1.515937	-3.856419	5.832053	-1.835068	0.477735	-5.082390	0.	0.	0.	1.524949	0.608814	-4.201859	0.701510	-0.469524	3.882817	0.339847	1.988805	-4.316039	0.	0.	0.	-1.838090	-2.926620	1.172185	2.986985	3.870209	-9.415214	-0.052070	3.065649	3.190476	2.990503	-5.274218	-15.027636	-2.469575	-2.693975	-2.461318	4.489848	-1.701405	-17.577862	-1.547824	5.243546	2.640623	-1.509295	-9.031553	10.841259	1.601526	-2.176866	7.775926	-1.716786	-1.671885	9.781805	-5.853769	7.148469	-18.284536	0.417490	1.861469	28.712122	
-0.654723	100.585099	5.820311	-1.278486	2.565827	-3.726074	0.590411	4.786710	3.197674	1.515461	-3.848349	6.149969	-2.068163	0.683104	-5.167270	0.	0.	0.	1.591976	0.761952	-3.980322	0.555794	-0.417488	3.643447	0.491535	2.254968	-4.230750	0.	0.	0.	-1.831070	-3.179430	1.228583	2.970963	3.806113	-9.489684	-0.054269	3.142053	3.206502	2.964634	-5.278595	-15.013826	-2.403975	-2.630863	-2.450013	4.462708	-1.617417	-17.639738	-1.592681	5.323480	2.619778	-1.440365	-9.065145	10.859657	1.639493	-2.047295	7.835732	-1.859996	-1.824629	9.716680	-5.869212	7.476028	-18.194361	0.565087	1.625131	28.569105	
-0.706505	100.647673	6.104647	-1.283294	2.538198	-3.859349	0.631036	4.939775	3.321702	1.525675	-3.718481	6.365557	-2.363320	0.939187	-5.316351	0.	0.	0.	1.649533	0.924395	-3.805966	0.402811	-0.369879	3.364836	0.660060	2.596823	-4.064325	0.	0.	0.	-1.824605	-3.414130	1.285320	2.934855	3.761827	-9.558599	-0.035427	3.222280	3.228879	2.942465	-5.302924	-15.016820	-2.401546	-2.536877	-2.335002	4.468500	-1.600816	-17.721237	-1.614454	5.411844	2.614246	-1.383206	-9.109440	10.890718	1.682943	-2.182277	7.686572	-2.066361	-1.729016	9.838000	-5.806578	7.788795	-18.261265	0.627966	1.371941	28.642666	
-0.718693	100.750283	6.391699	-1.282364	2.448713	-3.984746	0.613140	5.030344	3.446554	1.598699	-3.462351	6.579109	-2.695654	1.237556	-5.479440	0.	0.	0.	1.709132	1.121235	-3.731874	0.230566	-0.297061	3.143330	0.829347	3.002425	-3.865661	0.	0.	0.	-1.829741	-3.573295	1.349565	2.904397	3.726032	-9.637768	-0.012058	3.294673	3.277877	2.918122	-5.330932	-15.024249	-2.407286	-2.477169	-2.236416	4.486653	-1.589710	-17.743408	-1.635758	5.503454	2.624309	-1.335916	-9.160989	10.932216	1.718203	-2.171101	7.590396	-2.298609	-1.760991	9.845745	-5.741935	8.065622	-18.254925	0.653090	1.153990	28.697010	
-0.744893	100.931580	6.786938	-1.263478	2.292991	-4.154430	0.680302	5.429666	3.916933	1.572831	-3.335185	6.532573	-3.197968	1.769385	-5.662857	0.	0.	0.	1.793552	1.364932	-3.752870	-0.048770	-0.106647	2.995094	1.073787	3.704234	-3.641364	0.	0.	0.	-1.880579	-3.769479	1.457490	2.890232	3.692351	-9.771322	0.024983	3.379888	3.357151	2.880608	-5.367274	-15.008698	-2.416319	-2.451369	-2.143059	4.509800	-1.588917	-17.730730	-1.665895	5.615049	2.635699	-1.274228	-9.230686	11.017828	1.775306	-2.135348	7.394382	-2.510456	-1.779188	9.833110	-5.610770	8.458438	-18.230873	0.658462	0.813818	28.747038	
-0.744608	100.995878	6.922638	-1.258651	2.252188	-4.208571	0.686149	5.513748	4.009242	1.591131	-3.261032	6.552318	-3.358744	1.969694	-5.695307	0.	0.	0.	1.812146	1.429842	-3.775491	-0.128024	-0.035252	2.997865	1.148665	3.958678	-3.605806	0.	0.	0.	-1.905559	-3.844486	1.508726	2.883767	3.578877	-9.881045	0.029686	3.514563	3.432809	2.861992	-5.377965	-14.987035	-2.396931	-2.574566	-2.134923	4.522271	-1.597289	-17.731277	-1.684621	5.671260	2.635178	-1.235546	-9.270117	11.077034	1.805618	-2.110720	7.261802	-2.523106	-1.762152	9.819112	-5.539072	8.734043	-18.203434	0.696247	0.547762	28.751925	
-0.709029	101.193657	7.292743	-1.297087	2.211555	-4.357102	0.736115	5.632502	4.178882	1.598997	-3.219545	6.582032	-3.610938	2.500901	-5.686140	0.	0.	0.	1.900023	1.471077	-3.807235	-0.344727	0.251725	2.973686	1.352372	4.792439	-3.521504	0.	0.	0.	-1.922055	-4.144887	1.646465	2.925396	3.690747	-9.996836	0.021829	3.459604	3.489975	2.869380	-5.391174	-14.932583	-2.436354	-2.533911	-2.146346	4.532705	-1.605407	-17.775702	-1.703983	5.732413	2.641043	-1.193390	-9.298441	11.113496	1.829259	-2.009882	7.249794	-2.475530	-1.804317	9.751931	-5.530683	8.985023	-18.128805	0.776426	0.337148	28.727236	
